<svg width="65" height="65" viewBox="0 0 65 65" fill="none" xmlns="http://www.w3.org/2000/svg">
<path d="M48.7477 18.9605C48.7477 19.4961 48.5889 20.0197 48.2913 20.4651C47.9937 20.9104 47.5708 21.2576 47.0759 21.4625C46.581 21.6675 46.0365 21.7211 45.5112 21.6166C44.9858 21.5122 44.5033 21.2542 44.1245 20.8755C43.7458 20.4967 43.4878 20.0142 43.3834 19.4888C43.2789 18.9635 43.3325 18.419 43.5375 17.9241C43.7424 17.4292 44.0896 17.0063 44.5349 16.7087C44.9803 16.4111 45.5039 16.2523 46.0395 16.2523C46.7578 16.2523 47.4466 16.5376 47.9545 17.0455C48.4624 17.5534 48.7477 18.2422 48.7477 18.9605ZM37.9149 24.3769C37.3793 24.3769 36.8557 24.5357 36.4103 24.8333C35.9649 25.1309 35.6178 25.5539 35.4128 26.0487C35.2079 26.5436 35.1542 27.0881 35.2587 27.6134C35.3632 28.1388 35.6212 28.6213 35.9999 29.0001C36.3787 29.3788 36.8612 29.6368 37.3866 29.7413C37.9119 29.8458 38.4564 29.7921 38.9513 29.5872C39.4461 29.3822 39.8691 29.0351 40.1667 28.5897C40.4643 28.1443 40.6231 27.6207 40.6231 27.0851C40.6231 26.3668 40.3378 25.678 39.8299 25.1701C39.322 24.6622 38.6332 24.3769 37.9149 24.3769ZM29.7903 32.5015C29.2546 32.5015 28.731 32.6603 28.2857 32.9579C27.8403 33.2555 27.4932 33.6785 27.2882 34.1733C27.0832 34.6682 27.0296 35.2127 27.1341 35.7381C27.2386 36.2634 27.4965 36.746 27.8753 37.1247C28.254 37.5035 28.7366 37.7614 29.2619 37.8659C29.7873 37.9704 30.3318 37.9168 30.8267 37.7118C31.3215 37.5068 31.7445 37.1597 32.0421 36.7143C32.3397 36.269 32.4985 35.7454 32.4985 35.2097C32.4985 34.4915 32.2132 33.8026 31.7053 33.2947C31.1974 32.7868 30.5085 32.5015 29.7903 32.5015ZM64.6341 8.0139L64.431 8.58534C60.3632 19.8731 56.4607 30.6058 48.7477 40.1387V40.6261C48.743 44.7743 47.8735 48.8759 46.1948 52.6693C44.5162 56.4626 42.0651 59.8643 38.9982 62.6574C37.3746 64.1553 35.2491 64.991 33.0401 65C30.7411 64.9928 28.5385 64.0753 26.9143 62.4481C25.2902 60.8209 24.3767 58.6165 24.3739 56.3175V53.2003C22.3755 52.5558 20.5564 51.451 19.0631 49.9749L18.9574 49.872L12.7475 56.0819C12.2368 56.5752 11.5527 56.8482 10.8426 56.842C10.1325 56.8358 9.45324 56.551 8.95112 56.0489C8.44899 55.5468 8.16417 54.8675 8.158 54.1574C8.15183 53.4473 8.4248 52.7632 8.91813 52.2525L15.128 46.0425L15.0224 45.9396C13.5453 44.4446 12.438 42.6251 11.7888 40.6261H9.1077C6.69332 40.624 4.3784 39.6641 2.67092 37.9571C0.963434 36.2502 0.00286819 33.9355 0 31.5211C0.00479048 29.1631 0.914029 26.8968 2.5403 25.1894C5.37173 22.2814 8.77132 19.9874 12.5275 18.4498C16.2837 16.9123 20.3161 16.1643 24.3739 16.2523H24.8613C34.3942 8.542 45.1187 4.63948 56.4011 0.574458L56.9861 0.365927C58.0537 -0.0265435 59.2113 -0.105233 60.3221 0.139156C61.433 0.383545 62.4506 0.940799 63.2549 1.74508C64.0592 2.54935 64.6165 3.56704 64.8608 4.67789C65.1052 5.78875 65.0265 6.94634 64.6341 8.0139V8.0139ZM9.1077 35.2097H11.1036C11.3071 32.8236 12.1397 30.534 13.5167 28.5746C15.028 26.4002 16.6637 24.315 18.4158 22.3295C13.8729 23.2698 9.71964 25.5598 6.4997 28.8996C5.81469 29.6015 5.42668 30.5404 5.41641 31.5211C5.41785 32.4994 5.8073 33.4372 6.49932 34.1287C7.19133 34.8202 8.1294 35.209 9.1077 35.2097V35.2097ZM42.5189 46.725C40.5763 48.4255 38.5402 50.0158 36.42 51.4888C34.459 52.8523 32.1712 53.671 29.7903 53.8611V56.3175C29.7917 57.1837 30.1366 58.0141 30.7494 58.6263C31.3622 59.2386 32.1928 59.5829 33.0591 59.5836C33.9178 59.5709 34.7408 59.2377 35.3665 58.6493C38.8578 55.4533 41.3431 51.3099 42.5189 46.725ZM59.4099 5.59006C59.3378 5.50979 59.2423 5.4541 59.137 5.43079C59.0316 5.40747 58.9215 5.41771 58.8223 5.46006L58.24 5.6713C45.1214 10.3971 33.793 14.4811 24.038 24.2334C21.8004 26.5409 19.7636 29.0352 17.95 31.689C16.8468 33.2549 16.3324 35.16 16.4974 37.0683C16.6624 38.9766 17.4963 40.7652 18.8518 42.1184L22.8925 46.1536C24.245 47.5082 26.0324 48.3417 27.9394 48.5072C29.8465 48.6727 31.7507 48.1595 33.3164 47.0581C35.9687 45.2448 38.4612 43.208 40.7666 40.9701C50.5162 31.2205 54.6056 19.8813 59.3341 6.7573L59.5399 6.18586C59.5838 6.08551 59.5948 5.97389 59.5715 5.8669C59.5481 5.75992 59.4916 5.66303 59.4099 5.59006V5.59006Z" fill="#28D196"/>
</svg>
